<svg xmlns="http://www.w3.org/2000/svg" width="1727.485" height="201.247" viewBox="0 0 1727.485 201.247">
  <g id="Grupo_87" data-name="Grupo 87" transform="translate(-6 -7)">
    <g id="logo-cfcrl" transform="translate(6 7)">
      <g id="Grupo_84" data-name="Grupo 84">
        <ellipse id="Elipse_1" data-name="Elipse 1" cx="27.986" cy="28.005" rx="27.986" ry="28.005" transform="translate(5.404 5.391)" fill="#fff"/>
        <ellipse id="Elipse_2" data-name="Elipse 2" cx="27.986" cy="28.005" rx="27.986" ry="28.005" transform="translate(139.954 140.018)" fill="#fff"/>
        <path id="Trazado_1" data-name="Trazado 1" d="M195.572,195.644A39.134,39.134,0,0,1,249.1,193.9,100.64,100.64,0,0,0,118.024,62.726a39.172,39.172,0,0,1-55.292,55.331A100.64,100.64,0,0,0,193.824,249.188a39.211,39.211,0,0,1,1.748-53.544ZM128.3,183.758a39.192,39.192,0,1,1,55.408,0A39.192,39.192,0,0,1,128.3,183.758Z" transform="translate(-55.327 -55.334)" fill="#fff"/>
        <circle id="Elipse_3" data-name="Elipse 3" cx="25.131" cy="25.131" r="25.131" transform="translate(75.534 75.579)" fill="#fff"/>
      </g>
      <path id="Trazado_2" data-name="Trazado 2" d="M194.5,100.792a17.343,17.343,0,0,1-6.651-6.564,19.747,19.747,0,0,1,0-18.974,17.207,17.207,0,0,1,6.651-6.564,20.461,20.461,0,0,1,17.563-.738,16.152,16.152,0,0,1,6.035,4.681l-5.082,4.875a10.786,10.786,0,0,0-8.613-4.156,11.27,11.27,0,0,0-5.605,1.437,10.223,10.223,0,0,0-3.886,4.059,13.248,13.248,0,0,0,0,11.789,10.05,10.05,0,0,0,3.886,4.04,11.092,11.092,0,0,0,5.605,1.457,10.736,10.736,0,0,0,8.613-4.214l5.082,4.855a16.011,16.011,0,0,1-6.053,4.739,19.871,19.871,0,0,1-8.071,1.612A19.106,19.106,0,0,1,194.5,100.792Z" transform="translate(57.641 -44.984)" fill="#fff"/>
      <path id="Trazado_3" data-name="Trazado 3" d="M233.382,95.616V102.3H206.87V66.64h25.877v6.526H214.736v7.768h15.918v6.409H214.736v8.235Z" transform="translate(76.267 -44.683)" fill="#fff"/>
      <path id="Trazado_4" data-name="Trazado 4" d="M256.947,66.64V102.3h-6.5L233.369,80.681V102.3H225.54V66.64H232.1l17.021,21.616V66.64Z" transform="translate(92.479 -44.683)" fill="#fff"/>
      <path id="Trazado_5" data-name="Trazado 5" d="M256.7,73.34H245.73v-6.7h29.894v6.7H264.657V102.3H256.7Z" transform="translate(110.012 -44.683)" fill="#fff"/>
      <path id="Trazado_6" data-name="Trazado 6" d="M286.921,102.3l-6.614-9.924h-7.286V102.3H265.08V66.643h14.8a18.482,18.482,0,0,1,7.9,1.573,11.781,11.781,0,0,1,5.157,4.467,12.693,12.693,0,0,1,1.868,6.875,12.476,12.476,0,0,1-1.868,6.836,11.9,11.9,0,0,1-5.213,4.409l7.7,11.5ZM284.9,75.11a8.087,8.087,0,0,0-5.437-1.612h-6.446v12.41h6.446A8.087,8.087,0,0,0,284.9,84.3a6.588,6.588,0,0,0,0-9.186Z" transform="translate(126.814 -44.685)" fill="#fff"/>
      <path id="Trazado_7" data-name="Trazado 7" d="M293.416,100.754a17.279,17.279,0,0,1-6.708-6.584,19.525,19.525,0,0,1,0-18.858,17.338,17.338,0,0,1,6.708-6.6,20.454,20.454,0,0,1,19.188,0,18.5,18.5,0,0,1,0,32.045A20.453,20.453,0,0,1,293.416,100.754Zm15.078-6.079a10.075,10.075,0,0,0,3.849-4.04,13.106,13.106,0,0,0,0-11.789,10.251,10.251,0,0,0-3.849-4.059,11.144,11.144,0,0,0-10.949,0,10.246,10.246,0,0,0-3.849,4.059,13.248,13.248,0,0,0,0,11.789,10.073,10.073,0,0,0,3.849,4.04A11.018,11.018,0,0,0,308.494,94.675Z" transform="translate(143.488 -44.985)" fill="#fff"/>
      <path id="Trazado_8" data-name="Trazado 8" d="M325.072,73.166v9.419h15.844v6.6H325.072V102.3H317.15V66.64h25.877v6.526Z" transform="translate(172.03 -44.683)" fill="#fff"/>
      <path id="Trazado_9" data-name="Trazado 9" d="M361.475,95.616V102.3H335V66.64h25.877v6.526H342.847v7.768h15.9v6.409h-15.9v8.235Z" transform="translate(187.53 -44.683)" fill="#fff"/>
      <path id="Trazado_10" data-name="Trazado 10" d="M353.65,66.642h15.6a21.2,21.2,0,0,1,9.865,2.214,16.181,16.181,0,0,1,6.614,6.254,19.608,19.608,0,0,1,0,18.7,16.171,16.171,0,0,1-6.651,6.234,21.2,21.2,0,0,1-9.828,2.253H353.688Zm15.171,28.84a11.2,11.2,0,0,0,8.2-2.894,12.192,12.192,0,0,0,0-16.12,11.279,11.279,0,0,0-8.2-2.972h-7.23V95.483Z" transform="translate(203.725 -44.685)" fill="#fff"/>
      <path id="Trazado_11" data-name="Trazado 11" d="M402.911,95.616V102.3H376.38V66.64h25.9v6.526H384.265v7.768h15.9v6.409h-15.9v8.235Z" transform="translate(223.463 -44.683)" fill="#fff"/>
      <path id="Trazado_12" data-name="Trazado 12" d="M416.891,102.3l-6.614-9.924H402.99V102.3h-7.94V66.643H409.9a18.482,18.482,0,0,1,7.9,1.573,11.777,11.777,0,0,1,5.157,4.467,12.694,12.694,0,0,1,1.869,6.875A11.677,11.677,0,0,1,417.788,90.8l7.6,11.5Zm-2.018-27.19a8.069,8.069,0,0,0-5.418-1.612H402.99v12.41h6.464a8.071,8.071,0,0,0,5.419-1.612,6.587,6.587,0,0,0,0-9.186Z" transform="translate(239.676 -44.685)" fill="#fff"/>
      <path id="Trazado_13" data-name="Trazado 13" d="M440.054,94.5H424.211l-3.1,7.768H413l15.284-35.6h7.828l15.283,35.6h-8.314Zm-2.5-6.254-5.437-13.595L426.7,88.247Z" transform="translate(255.262 -44.654)" fill="#fff"/>
      <path id="Trazado_14" data-name="Trazado 14" d="M436.56,66.64h7.94V95.519h17.171V102.3H436.56Z" transform="translate(275.721 -44.683)" fill="#fff"/>
      <path id="Trazado_15" data-name="Trazado 15" d="M186.57,96.462h15.564A21.2,21.2,0,0,1,212,98.676a16.173,16.173,0,0,1,6.651,6.234,19.648,19.648,0,0,1,0,18.722A16.173,16.173,0,0,1,212,129.867a21.2,21.2,0,0,1-9.865,2.214H186.57Zm15.171,28.84a11.278,11.278,0,0,0,8.2-2.971,12.192,12.192,0,0,0,0-16.119,11.279,11.279,0,0,0-8.2-2.971h-7.231V125.3Z" transform="translate(58.639 -16.591)" fill="#fff"/>
      <path id="Trazado_16" data-name="Trazado 16" d="M235.831,125.456v6.623H209.3V96.46h25.9v6.623H217.185v7.768h15.844v6.409h-15.9v8.235Z" transform="translate(78.377 -16.589)" fill="#fff"/>
      <path id="Trazado_17" data-name="Trazado 17" d="M244.41,130.6a17.207,17.207,0,0,1-6.651-6.564,19.7,19.7,0,0,1,0-18.955,17.207,17.207,0,0,1,6.651-6.564,20.461,20.461,0,0,1,17.563-.738,16.208,16.208,0,0,1,6.053,4.681l-5.1,4.875a10.77,10.77,0,0,0-8.595-4.176,11.038,11.038,0,0,0-5.605,1.457,10.217,10.217,0,0,0-3.9,4.04,13.288,13.288,0,0,0,0,11.808,10.217,10.217,0,0,0,3.9,4.04,11.036,11.036,0,0,0,5.605,1.457,10.72,10.72,0,0,0,8.594-4.234l5.1,4.894a16.174,16.174,0,0,1-6.072,4.719,19.4,19.4,0,0,1-8.071,1.631A19.128,19.128,0,0,1,244.41,130.6Z" transform="translate(100.981 -16.881)" fill="#fff"/>
      <path id="Trazado_18" data-name="Trazado 18" d="M264.358,130.585A17.412,17.412,0,0,1,257.65,124a19.687,19.687,0,0,1,0-18.877,17.413,17.413,0,0,1,6.707-6.584,19.452,19.452,0,0,1,9.622-2.389,19.255,19.255,0,0,1,9.585,2.389,18.5,18.5,0,0,1,0,32.045,19.256,19.256,0,0,1-9.585,2.389A19.453,19.453,0,0,1,264.358,130.585Zm15.1-6.079a10.342,10.342,0,0,0,3.849-4.04,13.287,13.287,0,0,0,0-11.808,10.339,10.339,0,0,0-3.849-4.04,10.479,10.479,0,0,0-5.474-1.457,10.6,10.6,0,0,0-5.493,1.457,10.286,10.286,0,0,0-3.83,4.04,13.146,13.146,0,0,0,0,11.808,10.287,10.287,0,0,0,3.83,4.04,10.6,10.6,0,0,0,5.493,1.457A10.478,10.478,0,0,0,279.454,124.506Z" transform="translate(118.27 -16.882)" fill="#fff"/>
      <path id="Trazado_19" data-name="Trazado 19" d="M311,96.46v35.618h-6.5l-17.077-21.616v21.616H279.59V96.46h6.558l17.021,21.616V96.46Z" transform="translate(139.414 -16.589)" fill="#fff"/>
      <path id="Trazado_20" data-name="Trazado 20" d="M309.78,130.606a17.207,17.207,0,0,1-6.651-6.564,19.706,19.706,0,0,1,0-18.955,17.207,17.207,0,0,1,6.651-6.564,20.46,20.46,0,0,1,17.637-.719,16.155,16.155,0,0,1,6.035,4.681l-5.082,4.875a10.805,10.805,0,0,0-8.613-4.176,11.09,11.09,0,0,0-5.6,1.457,10.161,10.161,0,0,0-3.887,4.04,13.288,13.288,0,0,0,0,11.808,10.163,10.163,0,0,0,3.886,4.04,11.09,11.09,0,0,0,5.6,1.457,10.756,10.756,0,0,0,8.613-4.234l5.082,4.894a15.967,15.967,0,0,1-6.054,4.719A19.532,19.532,0,0,1,319.328,133,19.127,19.127,0,0,1,309.78,130.606Z" transform="translate(157.745 -16.884)" fill="#fff"/>
      <path id="Trazado_21" data-name="Trazado 21" d="M322.15,96.46h7.922v35.618H322.15Z" transform="translate(176.372 -16.589)" fill="#fff"/>
      <path id="Trazado_22" data-name="Trazado 22" d="M331.84,96.46h7.922v28.9h17.17v6.72H331.84Z" transform="translate(184.786 -16.589)" fill="#fff"/>
      <path id="Trazado_23" data-name="Trazado 23" d="M348.75,96.46h7.941v35.618H348.75Z" transform="translate(199.47 -16.589)" fill="#fff"/>
      <path id="Trazado_24" data-name="Trazado 24" d="M383.129,124.446H367.21l-3.045,7.632H356L371.265,96.46h7.828l15.3,35.618h-8.314Zm-2.5-6.254L375.207,104.6l-5.437,13.595Z" transform="translate(205.766 -16.589)" fill="#fff"/>
      <path id="Trazado_25" data-name="Trazado 25" d="M387.27,130.6a17.207,17.207,0,0,1-6.651-6.564,19.7,19.7,0,0,1,0-18.955,17.206,17.206,0,0,1,6.651-6.564,20.46,20.46,0,0,1,17.563-.738,16.152,16.152,0,0,1,6.035,4.68l-5.007,4.875a10.806,10.806,0,0,0-8.614-4.175,11.092,11.092,0,0,0-5.6,1.457,10.163,10.163,0,0,0-3.886,4.04,13.146,13.146,0,0,0,0,11.808,10.163,10.163,0,0,0,3.886,4.04,11.092,11.092,0,0,0,5.6,1.457,10.755,10.755,0,0,0,8.614-4.234l5.081,4.894a15.967,15.967,0,0,1-6.053,4.719,19.532,19.532,0,0,1-8.071,1.631A19.126,19.126,0,0,1,387.27,130.6Z" transform="translate(225.035 -16.881)" fill="#fff"/>
      <path id="Trazado_26" data-name="Trazado 26" d="M399.64,96.46h7.922v35.618H399.64Z" transform="translate(243.661 -16.589)" fill="#fff"/>
      <path id="Trazado_27" data-name="Trazado 27" d="M417.3,135.247a17.408,17.408,0,0,1-6.707-6.584,19.688,19.688,0,0,1,0-18.877A17.409,17.409,0,0,1,417.3,103.2a20.49,20.49,0,0,1,19.207,0,18.5,18.5,0,0,1,0,32.045A20.49,20.49,0,0,1,417.3,135.247Zm15.1-6.079a10.151,10.151,0,0,0,3.83-4.04,13.147,13.147,0,0,0,0-11.808,10.15,10.15,0,0,0-3.83-4.04,11.055,11.055,0,0,0-10.967,0,10.17,10.17,0,0,0-3.737,4.04,13.147,13.147,0,0,0,0,11.808,10.169,10.169,0,0,0,3.737,4.04,11.055,11.055,0,0,0,10.968,0ZM429.069,91.2h8.22L428.4,98.58h-5.979Z" transform="translate(251.077 -21.544)" fill="#fff"/>
      <path id="Trazado_28" data-name="Trazado 28" d="M463.937,96.46v35.618h-6.5l-17.077-21.616v21.616H432.53V96.46h6.483l17.021,21.616V96.46Z" transform="translate(272.222 -16.589)" fill="#fff"/>
      <path id="Trazado_29" data-name="Trazado 29" d="M205.243,149.285v12.6h-7.922V149.168L184,126.29h8.426l9.136,15.809,9.155-15.809h7.772Z" transform="translate(56.407 11.514)" fill="#fff"/>
      <path id="Trazado_30" data-name="Trazado 30" d="M235.739,161.892l-6.67-9.924h-7.287v9.924H213.86v-35.6h14.816a18.374,18.374,0,0,1,7.9,1.573,11.688,11.688,0,0,1,5.157,4.486,12.575,12.575,0,0,1,1.868,6.856,11.676,11.676,0,0,1-7.044,11.245l7.679,11.439Zm-2.018-27.287a8.068,8.068,0,0,0-5.418-1.593h-6.464v12.41H228.3a7.962,7.962,0,0,0,5.418-1.632,6.587,6.587,0,0,0,0-9.186Z" transform="translate(82.337 11.511)" fill="#fff"/>
      <path id="Trazado_31" data-name="Trazado 31" d="M260.761,155.286v6.6H234.23v-35.6h25.9v6.6H242.114v7.768h15.975v6.428h-15.9v8.254Z" transform="translate(100.025 11.514)" fill="#fff"/>
      <path id="Trazado_32" data-name="Trazado 32" d="M277.041,143.839h7.249v14.43a20.481,20.481,0,0,1-6.465,3.36,24.3,24.3,0,0,1-7.474,1.165,19.465,19.465,0,0,1-9.6-2.35,17.394,17.394,0,0,1-6.67-6.564,19.747,19.747,0,0,1,0-18.974,17.1,17.1,0,0,1,6.726-6.564,19.81,19.81,0,0,1,9.678-2.369,20.57,20.57,0,0,1,8.183,1.593,16.15,16.15,0,0,1,6.166,4.564l-5.082,4.894a12.09,12.09,0,0,0-14.685-2.6,9.94,9.94,0,0,0-3.961,4.02,12.941,12.941,0,0,0,0,11.789,10.14,10.14,0,0,0,3.923,4.039,11.3,11.3,0,0,0,5.755,1.457,12.549,12.549,0,0,0,6.166-1.515Z" transform="translate(115.152 11.212)" fill="#fff"/>
      <path id="Trazado_33" data-name="Trazado 33" d="M274.14,126.29h7.941v35.6H274.14Z" transform="translate(134.682 11.514)" fill="#fff"/>
      <path id="Trazado_34" data-name="Trazado 34" d="M288.5,161.669a18.486,18.486,0,0,1-6.11-2.991l2.69-6.2a18.594,18.594,0,0,0,5.25,2.7,18.848,18.848,0,0,0,6.054,1.01,9.4,9.4,0,0,0,5.007-1.049A3.144,3.144,0,0,0,303,152.386a2.7,2.7,0,0,0-.953-2.117,6.976,6.976,0,0,0-2.448-1.34c-.99-.35-2.335-.719-4.035-1.127a50.16,50.16,0,0,1-6.408-1.942,10.318,10.318,0,0,1-4.279-3.088,8.607,8.607,0,0,1-1.868-5.71,10.126,10.126,0,0,1,1.625-5.613,10.974,10.974,0,0,1,4.858-4,19.4,19.4,0,0,1,7.959-1.476,25.343,25.343,0,0,1,6.409.816,18.3,18.3,0,0,1,5.474,2.35l-2.447,6.254a18.558,18.558,0,0,0-9.491-2.8,8.689,8.689,0,0,0-4.914,1.107,3.47,3.47,0,0,0-1.588,2.952,2.909,2.909,0,0,0,1.868,2.738,29.264,29.264,0,0,0,5.6,1.748,54.014,54.014,0,0,1,6.409,1.942,10.764,10.764,0,0,1,4.278,3.069,8.318,8.318,0,0,1,1.868,5.632,9.983,9.983,0,0,1-1.644,5.574,11.289,11.289,0,0,1-4.914,4,19.571,19.571,0,0,1-7.978,1.457A27.125,27.125,0,0,1,288.5,161.669Z" transform="translate(141.846 11.209)" fill="#fff"/>
      <path id="Trazado_35" data-name="Trazado 35" d="M310.277,133.01H299.31v-6.72H329.2v6.72H318.237v28.879h-7.922Z" transform="translate(156.538 11.514)" fill="#fff"/>
      <path id="Trazado_36" data-name="Trazado 36" d="M340.5,161.891l-6.614-9.924H326.6v9.924h-7.94v-35.6H333.5a18.483,18.483,0,0,1,7.9,1.573,11.689,11.689,0,0,1,5.157,4.486,12.6,12.6,0,0,1,1.517,10.341,12.038,12.038,0,0,1-6.749,7.76L349,161.891ZM338.483,134.6a8.085,8.085,0,0,0-5.437-1.592H326.6v12.41h6.446a7.979,7.979,0,0,0,5.437-1.631,6.586,6.586,0,0,0,0-9.186Z" transform="translate(173.341 11.512)" fill="#fff"/>
      <path id="Trazado_37" data-name="Trazado 37" d="M347.046,160.4a17.28,17.28,0,0,1-6.707-6.584,18.8,18.8,0,0,1-1.915-14.23,18.064,18.064,0,0,1,8.623-11.231,20.454,20.454,0,0,1,19.188,0,17.716,17.716,0,0,1,6.707,6.6,18.76,18.76,0,0,1,1.907,14.233A18.022,18.022,0,0,1,366.2,160.4a20.455,20.455,0,0,1-19.188,0Zm15.078-6.079a10.072,10.072,0,0,0,3.849-4.039,13.106,13.106,0,0,0,0-11.789,10.248,10.248,0,0,0-3.849-4.059,11.143,11.143,0,0,0-10.948,0,10.247,10.247,0,0,0-3.849,4.059,13.248,13.248,0,0,0,0,11.789,10.074,10.074,0,0,0,3.849,4.04A11.018,11.018,0,0,0,362.124,154.325Z" transform="translate(189.963 11.212)" fill="#fff"/>
      <path id="Trazado_38" data-name="Trazado 38" d="M370.73,126.29h7.978v28.879h17.17v6.72H370.73Z" transform="translate(218.557 11.514)" fill="#fff"/>
      <path id="Trazado_39" data-name="Trazado 39" d="M412.444,154.256h-15.9l-3.027,7.632H385.39l15.264-35.6h7.828l15.321,35.6h-8.314ZM409.959,148l-5.437-13.595L399.085,148Z" transform="translate(231.287 11.514)" fill="#fff"/>
      <path id="Trazado_40" data-name="Trazado 40" d="M438.67,146.62a9.08,9.08,0,0,1,1.663,5.574,8.3,8.3,0,0,1-3.494,7.186,17.266,17.266,0,0,1-10.2,2.525H409v-35.6h16.815a15.935,15.935,0,0,1,9.6,2.486,8,8,0,0,1,3.363,6.778,8.572,8.572,0,0,1-4.559,7.768,8.928,8.928,0,0,1,4.447,3.282ZM416.81,132.5v8.39h7.866a7.7,7.7,0,0,0,4.465-1.068,3.976,3.976,0,0,0,0-6.273,7.858,7.858,0,0,0-4.466-1.049Zm13.957,22.14a3.737,3.737,0,0,0,1.607-3.321c0-2.952-2.111-4.408-6.315-4.408H416.81v8.8h9.248A8.559,8.559,0,0,0,430.767,154.641Z" transform="translate(251.789 11.498)" fill="#fff"/>
      <path id="Trazado_41" data-name="Trazado 41" d="M438.127,160.4a17.274,17.274,0,0,1-6.707-6.584A18.8,18.8,0,0,1,429.5,139.59a18.067,18.067,0,0,1,8.624-11.231,20.489,20.489,0,0,1,19.207,0,17.816,17.816,0,0,1,6.689,6.6,19.383,19.383,0,0,1,0,18.858,17.625,17.625,0,0,1-6.689,6.584A20.49,20.49,0,0,1,438.127,160.4Zm15.1-6.079a10.167,10.167,0,0,0,3.737-4.04,13.1,13.1,0,0,0,0-11.789,10.362,10.362,0,0,0-3.737-4.059,11.18,11.18,0,0,0-10.967,0,10.382,10.382,0,0,0-3.848,4.059,13.248,13.248,0,0,0,0,11.789,10.208,10.208,0,0,0,3.848,4.04,11.054,11.054,0,0,0,10.967,0Z" transform="translate(269.054 11.212)" fill="#fff"/>
      <path id="Trazado_42" data-name="Trazado 42" d="M475.16,161.892l-6.614-9.924h-7.287v9.924H453.3v-35.6h14.816a18.372,18.372,0,0,1,7.9,1.573,11.836,11.836,0,0,1,5.175,4.486,12.736,12.736,0,0,1,1.869,6.856,11.677,11.677,0,0,1-7.044,11.245l7.679,11.439Zm-2.018-27.287a8.066,8.066,0,0,0-5.418-1.593h-6.465v12.41h6.427a7.962,7.962,0,0,0,5.418-1.632,6.587,6.587,0,0,0,0-9.186Z" transform="translate(290.258 11.511)" fill="#fff"/>
      <path id="Trazado_43" data-name="Trazado 43" d="M498.294,154.256h-15.9l-3.045,7.632H471.24l15.265-35.6h7.829l15.3,35.6h-8.314ZM495.79,148l-5.418-13.595L484.935,148Z" transform="translate(305.836 11.514)" fill="#fff"/>
      <path id="Trazado_44" data-name="Trazado 44" d="M494.81,126.29h7.922v28.879H519.9v6.72H494.81Z" transform="translate(326.304 11.514)" fill="#fff"/>
    </g>
    <line id="Línea_2" data-name="Línea 2" y2="181.032" transform="translate(906.93 16.5)" fill="none" stroke="#fff" stroke-width="8"/>
    <path id="Trazado_45" data-name="Trazado 45" d="M-389.035-34.3V0h26.656V-6.419h-18.914v-7.6h16.513v-6.419h-16.513v-7.448h18.375V-34.3Zm34.594,0,11.466,16.758L-355.275,0h9.065l7.938-11.417L-330.186,0h9.261l-12.4-17.885L-321.906-34.3h-9.163l-7.2,10.486L-345.426-34.3Zm56.84,0h-14.553V0h7.742V-9.8h6.811c8.722,0,13.72-4.606,13.72-12.593C-283.882-29.988-288.879-34.3-297.6-34.3Zm-.392,18.032h-6.419V-27.881h6.419c4.312,0,6.762,1.911,6.762,5.733C-291.231-18.228-293.681-16.268-297.993-16.268ZM-274.522-34.3V0h26.656V-6.419H-266.78v-7.6h16.513v-6.419H-266.78v-7.448h18.375V-34.3Zm51.695,0h-14.553V0h14.259C-212.292,0-204.8-7.056-204.8-17.15-204.8-27.293-212.195-34.3-222.827-34.3Zm.2,27.783s-5.255,5.317-7.007,0,0-21.266,0-21.266h6.664c5.88,0,10.29,4.361,10.29,10.682C-212.685-10.829-216.9-6.517-222.632-6.517ZM-195.29-34.3V0h7.742V-34.3Zm19.747,0V0h26.656V-6.419H-167.8v-7.6h16.513v-6.419H-167.8v-7.448h18.375V-34.3Zm37.142,0V0h7.4V-22l16.611,22h7.056V-34.3h-7.35v22.05l-16.66-22.05Zm39.641,0v6.566h10.437V0h7.742V-27.734h10.486V-34.3Zm37.24,0V0h26.656V-6.419H-53.778v-7.6h16.513v-6.419H-53.778v-7.448H-35.4V-34.3Zm56.252,0V0H21.389V-6.419H2.475v-7.6H18.988v-6.419H2.475v-7.448H20.85V-34.3Zm37.142,0V0H54.317V-6.762h-14.7V-34.3Zm31.458,0V0H89.989V-6.419H71.075v-7.6H87.588v-6.419H71.075v-7.448H89.45V-34.3Zm61.985,10.927,4.508-5.488A19.519,19.519,0,0,0,116.3-34.545c-10.388,0-18.277,7.448-18.277,17.346,0,9.947,7.742,17.542,17.983,17.542a20.08,20.08,0,0,0,13.867-6.125l-4.557-4.949A13.235,13.235,0,0,1,116.4-6.713,10.356,10.356,0,0,1,105.963-17.3,10.315,10.315,0,0,1,116.4-27.832,12.416,12.416,0,0,1,125.318-23.373ZM135.51-34.3v6.566h10.437V0h7.742V-27.734h10.486V-34.3ZM202.591,0l-7.3-11.319c4.165-1.96,6.419-5.782,6.419-11.074,0-7.6-5.1-11.907-14.063-11.907h-14.9V0h7.742V-9.8h7.889L193.82,0Zm-22.1-27.881h7.154c4.263,0,6.713,1.911,6.713,5.733,0,3.92-2.45,5.88-6.713,5.88h-7.154Zm49.049-17.542-5.194,7.987h5.978l6.223-5.39Zm-.931,10.878c-10.486,0-18.424,7.4-18.424,17.4C210.186-7.2,218.124.343,228.61.343s18.424-7.595,18.424-17.493C247.034-27.1,239.1-34.545,228.61-34.545Zm.1,6.762A10.418,10.418,0,0,1,239.1-17.15,10.5,10.5,0,0,1,228.708-6.419,10.666,10.666,0,0,1,218.124-17.15,10.551,10.551,0,0,1,228.708-27.783ZM256.54-34.3V0h7.4V-22L280.549,0h7.056V-34.3h-7.35v22.05L263.6-34.3Zm43.022,0V0H307.3V-34.3Zm44.59,10.927,4.508-5.488a19.519,19.519,0,0,0-13.524-5.684c-10.388,0-18.277,7.448-18.277,17.346,0,9.947,7.742,17.542,17.983,17.542a20.08,20.08,0,0,0,13.867-6.125l-4.557-4.949a13.235,13.235,0,0,1-8.918,4.018A10.356,10.356,0,0,1,324.8-17.3a10.315,10.315,0,0,1,10.437-10.535A12.416,12.416,0,0,1,344.151-23.373Zm28.91-11.172c-10.486,0-18.424,7.4-18.424,17.4,0,9.947,7.938,17.493,18.424,17.493s18.424-7.595,18.424-17.493C391.485-27.1,383.547-34.545,373.061-34.545Zm.1,6.762A10.418,10.418,0,0,1,383.547-17.15,10.5,10.5,0,0,1,373.159-6.419,10.666,10.666,0,0,1,362.575-17.15,10.551,10.551,0,0,1,373.159-27.783ZM-243.506,31.7h-14.553V66H-243.8c10.829,0,18.326-7.056,18.326-17.15C-225.474,38.707-232.873,31.7-243.506,31.7Zm.2,27.783h-7.007V38.217h6.664c5.88,0,10.29,4.361,10.29,10.682C-233.363,55.171-237.577,59.483-243.31,59.483ZM-215.968,31.7V66h26.656V59.581h-18.914v-7.6h16.513V45.567h-16.513V38.119h18.375V31.7Zm81.1,10.927,4.508-5.488a19.52,19.52,0,0,0-13.524-5.684c-10.388,0-18.277,7.448-18.277,17.346,0,9.947,7.742,17.542,17.983,17.542a20.08,20.08,0,0,0,13.867-6.125l-4.557-4.949a13.235,13.235,0,0,1-8.918,4.018A10.356,10.356,0,0,1-154.228,48.7a10.315,10.315,0,0,1,10.437-10.535A12.416,12.416,0,0,1-134.873,42.627ZM-96.31,66h8.281L-102.68,31.7h-7.987l-14.9,34.3h7.987l2.695-6.664H-99Zm-16.023-12.887,5.439-13.328,5.39,13.328ZM-65.489,31.7H-80.042V66H-72.3V56.2h6.811c8.722,0,13.72-4.606,13.72-12.593C-51.769,36.012-56.767,31.7-65.489,31.7Zm-.392,18.032H-72.3V38.119h6.419c4.312,0,6.762,1.911,6.762,5.733C-59.119,47.772-61.569,49.732-65.881,49.732ZM-19.527,66h8.281L-25.9,31.7h-7.987L-48.78,66h7.987l2.695-6.664h15.876ZM-35.55,53.113l5.439-13.328,5.39,13.328Zm56.2-10.486,4.508-5.488a19.519,19.519,0,0,0-13.524-5.684C1.249,31.455-6.64,38.9-6.64,48.8c0,9.947,7.742,17.542,17.983,17.542A20.08,20.08,0,0,0,25.21,60.218l-4.557-4.949a13.235,13.235,0,0,1-8.918,4.018,10.56,10.56,0,0,1,0-21.119A12.416,12.416,0,0,1,20.653,42.627ZM34.226,31.7V66h7.742V31.7Zm16.366,0v6.566H61.03V66h7.742V38.266H79.258V31.7Zm59,34.3h8.281L103.219,31.7H95.232L80.336,66h7.987l2.695-6.664h15.876ZM93.566,53.113,99,39.785l5.39,13.328Zm56.2-10.486,4.508-5.488a19.52,19.52,0,0,0-13.524-5.684c-10.388,0-18.277,7.448-18.277,17.346,0,9.947,7.742,17.542,17.983,17.542a20.08,20.08,0,0,0,13.867-6.125l-4.557-4.949a13.235,13.235,0,0,1-8.918,4.018,10.56,10.56,0,0,1,0-21.119A12.416,12.416,0,0,1,149.768,42.627ZM163.342,31.7V66h7.742V31.7Zm36.652-11.123L194.8,28.564h5.978L207,23.174Zm-.931,10.878c-10.486,0-18.424,7.4-18.424,17.4,0,9.947,7.938,17.493,18.424,17.493s18.424-7.6,18.424-17.493C217.487,38.9,209.549,31.455,199.063,31.455Zm.1,6.762a10.686,10.686,0,0,1,0,21.364A10.666,10.666,0,0,1,188.577,48.85,10.551,10.551,0,0,1,199.161,38.217ZM226.993,31.7V66h7.4V44L251,66h7.056V31.7h-7.35V53.75L234.049,31.7Z" transform="translate(1342 92)" fill="#fff"/>
  </g>
</svg>
