<svg xmlns="http://www.w3.org/2000/svg" width="364.004" height="40.431" viewBox="0 0 364.004 40.431">
  <g id="Grupo_85" data-name="Grupo 85" transform="translate(-22.996 -78)">
    <g id="logo-cfcrl" transform="translate(22.996 78)">
      <g id="Grupo_84" data-name="Grupo 84">
        <ellipse id="Elipse_1" data-name="Elipse 1" cx="5.622" cy="5.626" rx="5.622" ry="5.626" transform="translate(1.086 1.083)" fill="#fff"/>
        <ellipse id="Elipse_2" data-name="Elipse 2" cx="5.622" cy="5.626" rx="5.622" ry="5.626" transform="translate(28.117 28.13)" fill="#fff"/>
        <path id="Trazado_1" data-name="Trazado 1" d="M83.5,83.523a7.862,7.862,0,0,1,10.753-.351A20.219,20.219,0,0,0,67.923,56.819,7.87,7.87,0,0,1,56.815,67.935,20.219,20.219,0,0,0,83.152,94.28,7.878,7.878,0,0,1,83.5,83.523ZM69.987,81.135a7.874,7.874,0,1,1,11.132,0A7.874,7.874,0,0,1,69.987,81.135Z" transform="translate(-55.327 -55.334)" fill="#fff"/>
        <circle id="Elipse_3" data-name="Elipse 3" cx="5.049" cy="5.049" r="5.049" transform="translate(15.175 15.184)" fill="#fff"/>
      </g>
      <path id="Trazado_2" data-name="Trazado 2" d="M187.244,73.246a3.484,3.484,0,0,1-1.336-1.319,3.967,3.967,0,0,1,0-3.812,3.457,3.457,0,0,1,1.336-1.319,4.111,4.111,0,0,1,3.528-.148,3.245,3.245,0,0,1,1.212.94l-1.021.979a2.167,2.167,0,0,0-1.73-.835,2.264,2.264,0,0,0-1.126.289,2.054,2.054,0,0,0-.781.815,2.662,2.662,0,0,0,0,2.368,2.019,2.019,0,0,0,.781.812,2.228,2.228,0,0,0,1.126.293,2.157,2.157,0,0,0,1.73-.847l1.021.975a3.217,3.217,0,0,1-1.216.952,3.992,3.992,0,0,1-1.622.324A3.839,3.839,0,0,1,187.244,73.246Z" transform="translate(-136.589 -62.034)" fill="#fff"/>
      <path id="Trazado_3" data-name="Trazado 3" d="M212.2,72.461V73.8H206.87V66.64h5.2v1.311H208.45v1.561h3.2V70.8h-3.2v1.654Z" transform="translate(-149.987 -62.229)" fill="#fff"/>
      <path id="Trazado_4" data-name="Trazado 4" d="M231.85,66.64V73.8h-1.306l-3.431-4.343V73.8H225.54V66.64h1.317l3.42,4.343V66.64Z" transform="translate(-161.649 -62.229)" fill="#fff"/>
      <path id="Trazado_5" data-name="Trazado 5" d="M247.933,67.986h-2.2V66.64h6.006v1.346h-2.2V73.8h-1.6Z" transform="translate(-174.261 -62.229)" fill="#fff"/>
      <path id="Trazado_6" data-name="Trazado 6" d="M269.468,73.8l-1.329-1.994h-1.464V73.8h-1.6V66.638h2.973a3.713,3.713,0,0,1,1.588.316,2.367,2.367,0,0,1,1.036.9,2.55,2.55,0,0,1,.375,1.381,2.507,2.507,0,0,1-.375,1.373,2.389,2.389,0,0,1-1.047.886l1.546,2.31Zm-.405-5.462a1.625,1.625,0,0,0-1.092-.324h-1.295v2.493h1.295a1.625,1.625,0,0,0,1.092-.324,1.324,1.324,0,0,0,0-1.846Z" transform="translate(-186.347 -62.227)" fill="#fff"/>
      <path id="Trazado_7" data-name="Trazado 7" d="M286.116,73.238a3.471,3.471,0,0,1-1.348-1.323,3.922,3.922,0,0,1,0-3.789,3.483,3.483,0,0,1,1.348-1.327,4.109,4.109,0,0,1,3.855,0,3.717,3.717,0,0,1,0,6.438A4.109,4.109,0,0,1,286.116,73.238Zm3.029-1.221a2.024,2.024,0,0,0,.773-.812,2.633,2.633,0,0,0,0-2.368,2.059,2.059,0,0,0-.773-.815,2.239,2.239,0,0,0-2.2,0,2.058,2.058,0,0,0-.773.815,2.662,2.662,0,0,0,0,2.368,2.024,2.024,0,0,0,.773.812A2.214,2.214,0,0,0,289.145,72.016Z" transform="translate(-198.341 -62.033)" fill="#fff"/>
      <path id="Trazado_8" data-name="Trazado 8" d="M318.742,67.951v1.892h3.183V71.17h-3.183V73.8H317.15V66.64h5.2v1.311Z" transform="translate(-218.873 -62.229)" fill="#fff"/>
      <path id="Trazado_9" data-name="Trazado 9" d="M340.319,72.461V73.8H335V66.64h5.2v1.311h-3.622v1.561h3.194V70.8h-3.194v1.654Z" transform="translate(-230.022 -62.229)" fill="#fff"/>
      <path id="Trazado_10" data-name="Trazado 10" d="M353.65,66.639h3.134a4.259,4.259,0,0,1,1.982.445,3.251,3.251,0,0,1,1.329,1.256,3.939,3.939,0,0,1,0,3.757,3.249,3.249,0,0,1-1.336,1.252,4.26,4.26,0,0,1-1.974.453h-3.127Zm3.048,5.794a2.25,2.25,0,0,0,1.648-.581,2.449,2.449,0,0,0,0-3.238,2.266,2.266,0,0,0-1.648-.6h-1.453v4.417Z" transform="translate(-241.672 -62.227)" fill="#fff"/>
      <path id="Trazado_11" data-name="Trazado 11" d="M381.71,72.461V73.8h-5.33V66.64h5.2v1.311h-3.618v1.561h3.194V70.8h-3.194v1.654Z" transform="translate(-255.87 -62.229)" fill="#fff"/>
      <path id="Trazado_12" data-name="Trazado 12" d="M399.438,73.8l-1.329-1.994h-1.464V73.8h-1.6V66.638h2.984a3.713,3.713,0,0,1,1.588.316,2.366,2.366,0,0,1,1.036.9,2.55,2.55,0,0,1,.375,1.381,2.346,2.346,0,0,1-1.415,2.259l1.528,2.31Zm-.405-5.462a1.621,1.621,0,0,0-1.089-.324h-1.3v2.493h1.3a1.621,1.621,0,0,0,1.089-.324,1.323,1.323,0,0,0,0-1.846Z" transform="translate(-267.532 -62.227)" fill="#fff"/>
      <path id="Trazado_13" data-name="Trazado 13" d="M418.435,72.261h-3.183l-.623,1.561H413l3.07-7.152h1.573l3.07,7.152h-1.67Zm-.5-1.256-1.092-2.731L415.751,71Z" transform="translate(-278.744 -62.247)" fill="#fff"/>
      <path id="Trazado_14" data-name="Trazado 14" d="M436.56,66.64h1.6v5.8h3.45V73.8H436.56Z" transform="translate(-293.461 -62.229)" fill="#fff"/>
      <path id="Trazado_15" data-name="Trazado 15" d="M186.57,96.459H189.7a4.259,4.259,0,0,1,1.982.445,3.249,3.249,0,0,1,1.336,1.252,3.947,3.947,0,0,1,0,3.761,3.249,3.249,0,0,1-1.336,1.252,4.259,4.259,0,0,1-1.982.445H186.57Zm3.048,5.794a2.266,2.266,0,0,0,1.648-.6,2.449,2.449,0,0,0,0-3.238,2.266,2.266,0,0,0-1.648-.6h-1.453v4.432Z" transform="translate(-137.307 -80.412)" fill="#fff"/>
      <path id="Trazado_16" data-name="Trazado 16" d="M214.63,102.285v1.33H209.3V96.46h5.2v1.33h-3.618v1.561h3.183v1.288h-3.194v1.654Z" transform="translate(-151.505 -80.414)" fill="#fff"/>
      <path id="Trazado_17" data-name="Trazado 17" d="M237.154,103.072a3.457,3.457,0,0,1-1.336-1.319,3.959,3.959,0,0,1,0-3.808,3.457,3.457,0,0,1,1.336-1.319,4.111,4.111,0,0,1,3.528-.148,3.256,3.256,0,0,1,1.216.94l-1.025.979a2.164,2.164,0,0,0-1.727-.839,2.217,2.217,0,0,0-1.126.293,2.053,2.053,0,0,0-.784.812,2.67,2.67,0,0,0,0,2.372,2.053,2.053,0,0,0,.784.812,2.217,2.217,0,0,0,1.126.293,2.154,2.154,0,0,0,1.727-.851l1.025.983a3.249,3.249,0,0,1-1.22.948,3.9,3.9,0,0,1-1.622.328A3.843,3.843,0,0,1,237.154,103.072Z" transform="translate(-167.764 -80.225)" fill="#fff"/>
      <path id="Trazado_18" data-name="Trazado 18" d="M257.072,103.067a3.5,3.5,0,0,1-1.348-1.323,3.955,3.955,0,0,1,0-3.792,3.5,3.5,0,0,1,1.348-1.323,3.908,3.908,0,0,1,1.933-.48,3.869,3.869,0,0,1,1.926.48,3.717,3.717,0,0,1,0,6.438,3.869,3.869,0,0,1-1.926.48A3.908,3.908,0,0,1,257.072,103.067Zm3.033-1.221a2.078,2.078,0,0,0,.773-.812,2.669,2.669,0,0,0,0-2.372,2.077,2.077,0,0,0-.773-.812,2.105,2.105,0,0,0-1.1-.293,2.13,2.13,0,0,0-1.1.293,2.066,2.066,0,0,0-.769.812,2.641,2.641,0,0,0,0,2.372,2.067,2.067,0,0,0,.769.812,2.131,2.131,0,0,0,1.1.293A2.1,2.1,0,0,0,260.1,101.846Z" transform="translate(-180.201 -80.224)" fill="#fff"/>
      <path id="Trazado_19" data-name="Trazado 19" d="M285.9,96.46v7.156h-1.306l-3.431-4.343v4.343H279.59V96.46h1.318l3.419,4.343V96.46Z" transform="translate(-195.411 -80.414)" fill="#fff"/>
      <path id="Trazado_20" data-name="Trazado 20" d="M302.524,103.07a3.457,3.457,0,0,1-1.336-1.319,3.959,3.959,0,0,1,0-3.808,3.457,3.457,0,0,1,1.336-1.319,4.11,4.11,0,0,1,3.543-.144,3.246,3.246,0,0,1,1.212.94l-1.021.979a2.171,2.171,0,0,0-1.73-.839,2.228,2.228,0,0,0-1.126.293,2.042,2.042,0,0,0-.781.812,2.67,2.67,0,0,0,0,2.372,2.042,2.042,0,0,0,.781.812,2.228,2.228,0,0,0,1.126.293,2.161,2.161,0,0,0,1.73-.851l1.021.983a3.208,3.208,0,0,1-1.216.948,3.924,3.924,0,0,1-1.622.328A3.842,3.842,0,0,1,302.524,103.07Z" transform="translate(-208.597 -80.222)" fill="#fff"/>
      <path id="Trazado_21" data-name="Trazado 21" d="M322.15,96.46h1.592v7.156H322.15Z" transform="translate(-221.996 -80.414)" fill="#fff"/>
      <path id="Trazado_22" data-name="Trazado 22" d="M331.84,96.46h1.592v5.806h3.449v1.35H331.84Z" transform="translate(-228.048 -80.414)" fill="#fff"/>
      <path id="Trazado_23" data-name="Trazado 23" d="M348.75,96.46h1.6v7.156h-1.6Z" transform="translate(-238.611 -80.414)" fill="#fff"/>
      <path id="Trazado_24" data-name="Trazado 24" d="M361.45,102.082h-3.2l-.612,1.533H356l3.067-7.156h1.573l3.074,7.156h-1.67Zm-.5-1.256-1.089-2.731-1.092,2.731Z" transform="translate(-243.14 -80.414)" fill="#fff"/>
      <path id="Trazado_25" data-name="Trazado 25" d="M380.014,103.072a3.457,3.457,0,0,1-1.336-1.319,3.959,3.959,0,0,1,0-3.808,3.457,3.457,0,0,1,1.336-1.319,4.111,4.111,0,0,1,3.528-.148,3.245,3.245,0,0,1,1.212.94l-1.006.979a2.171,2.171,0,0,0-1.73-.839,2.229,2.229,0,0,0-1.126.293,2.042,2.042,0,0,0-.781.812,2.641,2.641,0,0,0,0,2.372,2.042,2.042,0,0,0,.781.812,2.228,2.228,0,0,0,1.126.293,2.161,2.161,0,0,0,1.73-.851l1.021.983a3.208,3.208,0,0,1-1.216.948,3.924,3.924,0,0,1-1.622.328A3.842,3.842,0,0,1,380.014,103.072Z" transform="translate(-257.001 -80.225)" fill="#fff"/>
      <path id="Trazado_26" data-name="Trazado 26" d="M399.64,96.46h1.591v7.156H399.64Z" transform="translate(-270.399 -80.414)" fill="#fff"/>
      <path id="Trazado_27" data-name="Trazado 27" d="M410.012,100.049a3.5,3.5,0,0,1-1.348-1.323,3.955,3.955,0,0,1,0-3.793,3.5,3.5,0,0,1,1.348-1.323,4.116,4.116,0,0,1,3.859,0,3.717,3.717,0,0,1,0,6.438A4.116,4.116,0,0,1,410.012,100.049Zm3.033-1.221a2.04,2.04,0,0,0,.77-.812,2.641,2.641,0,0,0,0-2.372,2.039,2.039,0,0,0-.769-.812,2.221,2.221,0,0,0-2.2,0,2.043,2.043,0,0,0-.751.812,2.641,2.641,0,0,0,0,2.372,2.042,2.042,0,0,0,.751.812,2.221,2.221,0,0,0,2.2,0Zm-.668-7.628h1.652l-1.787,1.483h-1.2Z" transform="translate(-275.734 -77.206)" fill="#fff"/>
      <path id="Trazado_28" data-name="Trazado 28" d="M438.84,96.46v7.156h-1.306L434.1,99.273v4.343H432.53V96.46h1.3l3.42,4.343V96.46Z" transform="translate(-290.944 -80.414)" fill="#fff"/>
      <path id="Trazado_29" data-name="Trazado 29" d="M188.268,130.91v2.532h-1.592v-2.556L184,126.29h1.693l1.835,3.176,1.839-3.176h1.562Z" transform="translate(-135.702 -98.605)" fill="#fff"/>
      <path id="Trazado_30" data-name="Trazado 30" d="M218.255,133.44l-1.34-1.994h-1.464v1.994H213.86v-7.152h2.977a3.691,3.691,0,0,1,1.588.316,2.348,2.348,0,0,1,1.036.9,2.526,2.526,0,0,1,.375,1.377,2.346,2.346,0,0,1-1.415,2.259l1.543,2.3Zm-.405-5.482a1.621,1.621,0,0,0-1.089-.32h-1.3v2.493h1.3a1.6,1.6,0,0,0,1.089-.328,1.323,1.323,0,0,0,0-1.846Z" transform="translate(-154.353 -98.603)" fill="#fff"/>
      <path id="Trazado_31" data-name="Trazado 31" d="M239.56,132.115v1.327h-5.33V126.29h5.2v1.327h-3.618v1.561h3.209v1.291h-3.194v1.658Z" transform="translate(-167.077 -98.605)" fill="#fff"/>
      <path id="Trazado_32" data-name="Trazado 32" d="M256.751,129.559h1.456v2.9a4.115,4.115,0,0,1-1.3.675,4.882,4.882,0,0,1-1.5.234,3.911,3.911,0,0,1-1.929-.472,3.5,3.5,0,0,1-1.34-1.319,3.967,3.967,0,0,1,0-3.812,3.436,3.436,0,0,1,1.351-1.319,3.98,3.98,0,0,1,1.944-.476,4.132,4.132,0,0,1,1.644.32,3.245,3.245,0,0,1,1.239.917l-1.021.983a2.429,2.429,0,0,0-2.95-.523,2,2,0,0,0-.8.808,2.6,2.6,0,0,0,0,2.368,2.037,2.037,0,0,0,.788.812,2.272,2.272,0,0,0,1.156.293,2.521,2.521,0,0,0,1.239-.3Z" transform="translate(-177.959 -98.409)" fill="#fff"/>
      <path id="Trazado_33" data-name="Trazado 33" d="M274.14,126.29h1.6v7.152h-1.6Z" transform="translate(-192.007 -98.605)" fill="#fff"/>
      <path id="Trazado_34" data-name="Trazado 34" d="M283.617,133.139a3.714,3.714,0,0,1-1.227-.6l.54-1.245a3.735,3.735,0,0,0,1.055.542,3.787,3.787,0,0,0,1.216.2,1.889,1.889,0,0,0,1.006-.211.632.632,0,0,0,.323-.554.543.543,0,0,0-.191-.425,1.4,1.4,0,0,0-.492-.269c-.2-.07-.469-.144-.811-.226a10.078,10.078,0,0,1-1.287-.39,2.073,2.073,0,0,1-.86-.62,1.729,1.729,0,0,1-.375-1.147,2.035,2.035,0,0,1,.327-1.128,2.2,2.2,0,0,1,.976-.8,3.9,3.9,0,0,1,1.6-.3,5.091,5.091,0,0,1,1.287.164,3.676,3.676,0,0,1,1.1.472l-.492,1.256a3.728,3.728,0,0,0-1.907-.562,1.746,1.746,0,0,0-.987.222.7.7,0,0,0-.319.593.584.584,0,0,0,.375.55,5.879,5.879,0,0,0,1.126.351,10.848,10.848,0,0,1,1.288.39,2.162,2.162,0,0,1,.86.616,1.671,1.671,0,0,1,.375,1.132,2.006,2.006,0,0,1-.33,1.12,2.268,2.268,0,0,1-.987.8,3.931,3.931,0,0,1-1.6.293A5.449,5.449,0,0,1,283.617,133.139Z" transform="translate(-197.16 -98.407)" fill="#fff"/>
      <path id="Trazado_35" data-name="Trazado 35" d="M301.513,127.64h-2.2v-1.35h6.006v1.35h-2.2v5.8h-1.592Z" transform="translate(-207.729 -98.605)" fill="#fff"/>
      <path id="Trazado_36" data-name="Trazado 36" d="M323.048,133.44l-1.329-1.994h-1.464v1.994h-1.6v-7.152h2.98a3.713,3.713,0,0,1,1.588.316,2.348,2.348,0,0,1,1.036.9,2.532,2.532,0,0,1,.3,2.078,2.419,2.419,0,0,1-1.356,1.559l1.543,2.3Zm-.405-5.482a1.624,1.624,0,0,0-1.092-.32h-1.295v2.493h1.295a1.6,1.6,0,0,0,1.092-.328,1.323,1.323,0,0,0,0-1.846Z" transform="translate(-219.816 -98.603)" fill="#fff"/>
      <path id="Trazado_37" data-name="Trazado 37" d="M339.659,132.888a3.471,3.471,0,0,1-1.348-1.323,3.777,3.777,0,0,1-.385-2.859,3.629,3.629,0,0,1,1.732-2.256,4.109,4.109,0,0,1,3.855,0,3.559,3.559,0,0,1,1.348,1.327,3.769,3.769,0,0,1,.383,2.859,3.621,3.621,0,0,1-1.738,2.252,4.109,4.109,0,0,1-3.855,0Zm3.029-1.221a2.024,2.024,0,0,0,.773-.812,2.633,2.633,0,0,0,0-2.368,2.059,2.059,0,0,0-.773-.815,2.239,2.239,0,0,0-2.2,0,2.059,2.059,0,0,0-.773.815,2.662,2.662,0,0,0,0,2.368,2.024,2.024,0,0,0,.773.812A2.214,2.214,0,0,0,342.689,131.666Z" transform="translate(-231.773 -98.409)" fill="#fff"/>
      <path id="Trazado_38" data-name="Trazado 38" d="M370.73,126.29h1.6v5.8h3.45v1.35H370.73Z" transform="translate(-252.341 -98.605)" fill="#fff"/>
      <path id="Trazado_39" data-name="Trazado 39" d="M390.825,131.909h-3.194l-.608,1.533H385.39l3.067-7.152h1.573l3.078,7.152h-1.67Zm-.5-1.256-1.092-2.731-1.092,2.731Z" transform="translate(-261.498 -98.605)" fill="#fff"/>
      <path id="Trazado_40" data-name="Trazado 40" d="M414.961,130.361a1.824,1.824,0,0,1,.334,1.12,1.668,1.668,0,0,1-.7,1.444,3.469,3.469,0,0,1-2.049.507H409V126.28h3.378a3.2,3.2,0,0,1,1.929.5,1.608,1.608,0,0,1,.676,1.362,1.722,1.722,0,0,1-.916,1.561,1.794,1.794,0,0,1,.893.659Zm-4.392-2.837v1.686h1.58a1.546,1.546,0,0,0,.9-.215.8.8,0,0,0,0-1.26,1.579,1.579,0,0,0-.9-.211Zm2.8,4.448a.751.751,0,0,0,.323-.667c0-.593-.424-.886-1.269-.886h-1.858v1.767h1.858A1.72,1.72,0,0,0,413.373,131.972Z" transform="translate(-276.246 -98.594)" fill="#fff"/>
      <path id="Trazado_41" data-name="Trazado 41" d="M430.74,132.887a3.47,3.47,0,0,1-1.348-1.323,3.777,3.777,0,0,1-.385-2.859,3.63,3.63,0,0,1,1.732-2.256,4.116,4.116,0,0,1,3.859,0,3.579,3.579,0,0,1,1.344,1.327,3.894,3.894,0,0,1,0,3.789,3.54,3.54,0,0,1-1.344,1.323A4.116,4.116,0,0,1,430.74,132.887Zm3.033-1.221a2.042,2.042,0,0,0,.751-.812,2.633,2.633,0,0,0,0-2.368,2.082,2.082,0,0,0-.751-.815,2.246,2.246,0,0,0-2.2,0,2.086,2.086,0,0,0-.773.815,2.661,2.661,0,0,0,0,2.368,2.051,2.051,0,0,0,.773.812,2.221,2.221,0,0,0,2.2,0Z" transform="translate(-288.665 -98.409)" fill="#fff"/>
      <path id="Trazado_42" data-name="Trazado 42" d="M457.692,133.44l-1.329-1.994H454.9v1.994h-1.6v-7.152h2.977a3.691,3.691,0,0,1,1.588.316,2.378,2.378,0,0,1,1.04.9,2.559,2.559,0,0,1,.375,1.377,2.346,2.346,0,0,1-1.415,2.259l1.543,2.3Zm-.405-5.482a1.621,1.621,0,0,0-1.089-.32h-1.3v2.493h1.291a1.6,1.6,0,0,0,1.089-.328,1.324,1.324,0,0,0,0-1.846Z" transform="translate(-303.917 -98.603)" fill="#fff"/>
      <path id="Trazado_43" data-name="Trazado 43" d="M476.675,131.909h-3.194l-.612,1.533H471.24l3.067-7.152h1.573l3.074,7.152h-1.67Zm-.5-1.256-1.089-2.731-1.092,2.731Z" transform="translate(-315.123 -98.605)" fill="#fff"/>
      <path id="Trazado_44" data-name="Trazado 44" d="M494.81,126.29H496.4v5.8h3.45v1.35H494.81Z" transform="translate(-329.846 -98.605)" fill="#fff"/>
    </g>
    <line id="Línea_1" data-name="Línea 1" y2="39" transform="translate(207.5 78.5)" fill="none" stroke="#fff" stroke-width="2"/>
    <text id="EXPEDIENTE_ELECTRÓNICO_DE_CAPACITACIÓN" data-name="EXPEDIENTE ELECTRÓNICO
DE CAPACITACIÓN" transform="translate(222 95)" fill="#fff" font-size="10" font-family="Montserrat-Bold, Montserrat" font-weight="700" letter-spacing="0.09em"><tspan x="0" y="0">EXPEDIENTE ELECTRÓNICO</tspan><tspan x="0" y="13">DE CAPACITACIÓN</tspan></text>
  </g>
</svg>
